<mxfile host="65bd71144e">
    <diagram id="yk8NF5s4lmzRFMYtV1e7" name="Page-1">
        <mxGraphModel dx="1130" dy="792" grid="1" gridSize="10" guides="1" tooltips="1" connect="1" arrows="1" fold="1" page="1" pageScale="1" pageWidth="827" pageHeight="1169" math="0" shadow="0">
            <root>
                <mxCell id="0"/>
                <mxCell id="1" parent="0"/>
                <mxCell id="2" value="Enviar email para o cliente" style="shape=umlFrame;whiteSpace=wrap;html=1;width=90;height=50;" parent="1" vertex="1">
                    <mxGeometry x="20" y="50" width="660" height="510" as="geometry"/>
                </mxCell>
                <mxCell id="7" value="" style="shape=umlLifeline;participant=umlActor;perimeter=lifelinePerimeter;whiteSpace=wrap;html=1;container=1;collapsible=0;recursiveResize=0;verticalAlign=top;spacingTop=36;outlineConnect=0;" parent="1" vertex="1">
                    <mxGeometry x="80" y="140" width="20" height="360" as="geometry"/>
                </mxCell>
                <mxCell id="10" value="" style="html=1;points=[];perimeter=orthogonalPerimeter;" parent="7" vertex="1">
                    <mxGeometry x="5" y="60" width="10" height="80" as="geometry"/>
                </mxCell>
                <mxCell id="35" value="" style="html=1;points=[];perimeter=orthogonalPerimeter;" parent="7" vertex="1">
                    <mxGeometry x="5" y="160" width="10" height="30" as="geometry"/>
                </mxCell>
                <mxCell id="71" value="" style="html=1;points=[];perimeter=orthogonalPerimeter;" vertex="1" parent="7">
                    <mxGeometry x="5" y="260" width="10" height="30" as="geometry"/>
                </mxCell>
                <mxCell id="74" value="" style="html=1;points=[];perimeter=orthogonalPerimeter;" vertex="1" parent="7">
                    <mxGeometry x="5" y="310" width="10" height="30" as="geometry"/>
                </mxCell>
                <mxCell id="9" value="Sistema" style="text;html=1;strokeColor=none;fillColor=none;align=center;verticalAlign=middle;whiteSpace=wrap;rounded=0;" parent="1" vertex="1">
                    <mxGeometry x="100" y="120" width="60" height="30" as="geometry"/>
                </mxCell>
                <mxCell id="34" value="&lt;font style=&quot;font-size: 11px;&quot;&gt;2: Retona com o id e as informações do pedido&lt;/font&gt;" style="html=1;verticalAlign=bottom;endArrow=open;dashed=1;endSize=8;fontSize=10;exitX=-0.25;exitY=0.625;exitDx=0;exitDy=0;exitPerimeter=0;entryX=1;entryY=0.5;entryDx=0;entryDy=0;entryPerimeter=0;" parent="1" edge="1">
                    <mxGeometry relative="1" as="geometry">
                        <mxPoint x="402.5" y="261" as="sourcePoint"/>
                        <mxPoint x="95" y="261" as="targetPoint"/>
                    </mxGeometry>
                </mxCell>
                <mxCell id="12" value="" style="html=1;verticalAlign=bottom;endArrow=block;" parent="1" edge="1">
                    <mxGeometry width="80" relative="1" as="geometry">
                        <mxPoint x="90" y="224" as="sourcePoint"/>
                        <mxPoint x="400" y="224" as="targetPoint"/>
                        <Array as="points">
                            <mxPoint x="210" y="224"/>
                            <mxPoint x="240" y="224"/>
                            <mxPoint x="270" y="224"/>
                        </Array>
                    </mxGeometry>
                </mxCell>
                <mxCell id="14" value="1: Enviar&amp;nbsp; o Id do pedido" style="edgeLabel;html=1;align=center;verticalAlign=middle;resizable=0;points=[];" parent="12" vertex="1" connectable="0">
                    <mxGeometry x="0.219" relative="1" as="geometry">
                        <mxPoint x="-19" y="-24" as="offset"/>
                    </mxGeometry>
                </mxCell>
                <mxCell id="6" value="Banco de dados" style="shape=umlLifeline;perimeter=lifelinePerimeter;whiteSpace=wrap;html=1;container=1;collapsible=0;recursiveResize=0;outlineConnect=0;" parent="1" vertex="1">
                    <mxGeometry x="360" y="140" width="100" height="360" as="geometry"/>
                </mxCell>
                <mxCell id="13" value="" style="html=1;points=[];perimeter=orthogonalPerimeter;" parent="6" vertex="1">
                    <mxGeometry x="45" y="60" width="10" height="80" as="geometry"/>
                </mxCell>
                <mxCell id="63" value="" style="html=1;points=[];perimeter=orthogonalPerimeter;" vertex="1" parent="6">
                    <mxGeometry x="45" y="159" width="10" height="30" as="geometry"/>
                </mxCell>
                <mxCell id="57" value="" style="shape=umlLifeline;participant=umlActor;perimeter=lifelinePerimeter;whiteSpace=wrap;html=1;container=1;collapsible=0;recursiveResize=0;verticalAlign=top;spacingTop=36;outlineConnect=0;" parent="1" vertex="1">
                    <mxGeometry x="560" y="140" width="20" height="360" as="geometry"/>
                </mxCell>
                <mxCell id="59" value="" style="html=1;points=[];perimeter=orthogonalPerimeter;" parent="57" vertex="1">
                    <mxGeometry y="305" width="10" height="30" as="geometry"/>
                </mxCell>
                <mxCell id="60" value="Usuário" style="text;html=1;strokeColor=none;fillColor=none;align=center;verticalAlign=middle;whiteSpace=wrap;rounded=0;" parent="1" vertex="1">
                    <mxGeometry x="580" y="110" width="60" height="30" as="geometry"/>
                </mxCell>
                <mxCell id="61" value="" style="html=1;verticalAlign=bottom;endArrow=block;exitX=0;exitY=0.865;exitDx=0;exitDy=0;exitPerimeter=0;" parent="1" edge="1">
                    <mxGeometry width="80" relative="1" as="geometry">
                        <mxPoint x="100" y="311.68000000000006" as="sourcePoint"/>
                        <mxPoint x="410" y="312" as="targetPoint"/>
                    </mxGeometry>
                </mxCell>
                <mxCell id="62" value="3: Validar email do cliente" style="edgeLabel;html=1;align=center;verticalAlign=middle;resizable=0;points=[];" parent="1" vertex="1" connectable="0">
                    <mxGeometry x="270" y="300" as="geometry"/>
                </mxCell>
                <mxCell id="64" value="SE" style="shape=umlFrame;whiteSpace=wrap;html=1;fontSize=10;fillColor=#FFFFFF;width=30;height=20;" vertex="1" parent="1">
                    <mxGeometry x="290" y="330" width="110" height="50" as="geometry"/>
                </mxCell>
                <mxCell id="65" value="email == null" style="text;html=1;strokeColor=none;fillColor=none;align=center;verticalAlign=middle;whiteSpace=wrap;rounded=0;fontSize=10;" vertex="1" parent="1">
                    <mxGeometry x="320" y="342.5" width="70" height="25" as="geometry"/>
                </mxCell>
                <mxCell id="66" value="&lt;font style=&quot;font-size: 11px;&quot;&gt;4: Retona que o email não foi encontrado&lt;/font&gt;" style="html=1;verticalAlign=bottom;endArrow=open;dashed=1;endSize=8;fontSize=10;exitX=-0.25;exitY=0.625;exitDx=0;exitDy=0;exitPerimeter=0;startArrow=none;" edge="1" parent="1" source="69" target="71">
                    <mxGeometry relative="1" as="geometry">
                        <mxPoint x="407.5" y="420" as="sourcePoint"/>
                        <mxPoint x="110" y="419" as="targetPoint"/>
                    </mxGeometry>
                </mxCell>
                <mxCell id="67" value="" style="html=1;verticalAlign=bottom;endArrow=block;entryX=0;entryY=0.633;entryDx=0;entryDy=0;entryPerimeter=0;" edge="1" parent="1">
                    <mxGeometry width="80" relative="1" as="geometry">
                        <mxPoint x="90" y="465" as="sourcePoint"/>
                        <mxPoint x="560" y="463.99" as="targetPoint"/>
                        <Array as="points">
                            <mxPoint x="210" y="465"/>
                            <mxPoint x="240" y="465"/>
                            <mxPoint x="270" y="465"/>
                        </Array>
                    </mxGeometry>
                </mxCell>
                <mxCell id="68" value="5: Enviar&amp;nbsp; email do pedido para o usuário" style="edgeLabel;html=1;align=center;verticalAlign=middle;resizable=0;points=[];" vertex="1" connectable="0" parent="67">
                    <mxGeometry x="0.219" relative="1" as="geometry">
                        <mxPoint x="-76" y="-20" as="offset"/>
                    </mxGeometry>
                </mxCell>
                <mxCell id="70" value="" style="html=1;verticalAlign=bottom;endArrow=none;dashed=1;endSize=8;fontSize=10;exitX=-0.25;exitY=0.625;exitDx=0;exitDy=0;exitPerimeter=0;" edge="1" parent="1" target="69">
                    <mxGeometry relative="1" as="geometry">
                        <mxPoint x="407.5" y="420" as="sourcePoint"/>
                        <mxPoint x="89.5" y="420" as="targetPoint"/>
                    </mxGeometry>
                </mxCell>
                <mxCell id="69" value="" style="html=1;points=[];perimeter=orthogonalPerimeter;" vertex="1" parent="1">
                    <mxGeometry x="405" y="400" width="10" height="30" as="geometry"/>
                </mxCell>
            </root>
        </mxGraphModel>
    </diagram>
</mxfile>